<svg width="20" height="20" viewBox="0 0 20 20" fill="none" xmlns="http://www.w3.org/2000/svg">
<path d="M9.20408 6.36214C8.24867 6.36214 7.31169 6.39231 6.3776 6.35445C5.23848 6.30889 4.21455 5.30675 4.03717 4.13187C3.84885 2.88185 4.5048 1.65846 5.63066 1.21832C5.92783 1.10237 6.25608 1.02605 6.57282 1.0154C7.40729 0.9876 8.24291 1.00535 9.07853 1.00594C9.12 1.00594 9.16146 1.016 9.20408 1.02132V6.36214Z" fill="white"/>
<path d="M10.1651 6.36899V1.03705C10.1922 1.02344 10.2054 1.01161 10.2175 1.01161C11.1672 1.01752 12.1203 0.97493 13.0659 1.04355C14.3403 1.13525 15.3217 2.27464 15.366 3.60807C15.4098 4.92257 14.4976 6.0939 13.2473 6.32166C13.0786 6.35242 12.9046 6.36662 12.7325 6.36721C11.8836 6.37195 11.0353 6.36899 10.1646 6.36899H10.1651Z" fill="white"/>
<path d="M9.21088 12.6684C9.16596 12.6743 9.13198 12.6826 9.098 12.6826C8.24107 12.682 7.38415 12.7009 6.52779 12.6743C5.29596 12.6358 4.31234 11.7662 4.05491 10.5304C3.73299 8.98635 4.86692 7.41807 6.39937 7.34116C7.30467 7.29561 8.21286 7.32637 9.12046 7.32341C9.14753 7.32341 9.1746 7.33347 9.21145 7.34057V12.669L9.21088 12.6684Z" fill="white"/>
<path d="M9.20757 13.6362C9.20757 14.6608 9.20814 15.6576 9.20584 16.6544C9.20584 16.7201 9.18511 16.7858 9.17301 16.8508C8.94208 18.1003 7.77532 19.0527 6.54234 18.9977C5.23564 18.9397 4.16102 17.9323 4.02569 16.6385C3.85465 15.001 5.04098 13.6397 6.64312 13.6368C7.49198 13.635 8.34085 13.6368 9.20757 13.6368V13.6362Z" fill="white"/>
<path d="M15.3683 10.0003C15.3694 11.4834 14.2067 12.679 12.7618 12.6802C11.318 12.6814 10.153 11.4864 10.1519 10.0039C10.1507 8.52197 11.3152 7.32461 12.7589 7.32343C14.2033 7.32224 15.3671 8.51665 15.3689 10.0003H15.3683Z" fill="white"/>
</svg>
