<svg width="20" height="20" viewBox="0 0 20 20" fill="none" xmlns="http://www.w3.org/2000/svg">
<path d="M19.4995 10.768C19.452 11.1117 19.4238 11.4594 19.355 11.7987C18.6767 15.1519 16.7034 17.4518 13.5303 18.77C13.3601 18.8409 13.185 18.9025 13.0078 18.9553C12.6031 19.0756 12.3305 18.8776 12.3305 18.4649C12.3305 17.7315 12.329 16.9981 12.3389 16.2647C12.3488 15.5474 12.2716 14.8604 11.7298 14.3172C12.1647 14.2312 12.5917 14.1676 13.0073 14.06C14.0286 13.795 14.8866 13.2895 15.4318 12.3566C15.7985 11.7297 15.9533 11.0423 16.0087 10.3289C16.0612 9.65321 16.0538 8.977 15.7534 8.35165C15.5882 8.00743 15.3507 7.69793 15.1523 7.36887C15.1166 7.30971 15.082 7.2217 15.0998 7.16303C15.3259 6.43352 15.2631 5.7182 15.0325 5.00141C14.9751 4.82246 14.8638 4.77992 14.7183 4.80975C14.3695 4.88162 14.0088 4.93443 13.6832 5.06791C13.2696 5.23806 12.8886 5.484 12.4883 5.6874C12.4096 5.72749 12.2998 5.75292 12.2177 5.73287C10.7298 5.37154 9.24495 5.37252 7.75711 5.73189C7.67052 5.75292 7.54979 5.72505 7.47161 5.67762C6.87935 5.31874 6.27719 4.98626 5.58745 4.84544C5.04318 4.73445 4.97687 4.77454 4.84081 5.30554C4.68 5.9348 4.66466 6.56065 4.87792 7.18356C4.89325 7.22806 4.87693 7.30433 4.84526 7.33954C4.03826 8.23723 3.85023 9.30068 3.97195 10.4536C4.04914 11.186 4.2238 11.8852 4.63448 12.5096C5.18716 13.3496 6.00406 13.8136 6.95901 14.0625C7.36969 14.1696 7.79224 14.2346 8.21776 14.3202C8.21232 14.3299 8.20391 14.3578 8.18609 14.3764C7.91792 14.6561 7.76552 14.9934 7.7007 15.367C7.67745 15.501 7.61659 15.5655 7.49141 15.6075C6.79128 15.8408 6.10005 15.8941 5.48206 15.4173C5.24901 15.2379 5.06297 14.9885 4.88979 14.747C4.55086 14.2752 4.14365 13.9158 3.54198 13.8337C3.44055 13.82 3.3307 13.8229 3.23125 13.8459C3.15604 13.8635 3.04719 13.9139 3.03284 13.9696C3.0175 14.0302 3.08281 14.1226 3.13378 14.1847C3.18721 14.2493 3.25995 14.303 3.33367 14.3461C3.82896 14.636 4.1669 15.0658 4.36185 15.5846C4.80716 16.7673 5.89669 17.156 6.9981 17.0587C7.20047 17.0406 7.40185 17.0069 7.61659 16.9785C7.62154 17.0235 7.62995 17.0695 7.63044 17.1159C7.63589 17.556 7.64182 17.996 7.6438 18.4361C7.64628 18.8888 7.35583 19.1054 6.92438 18.95C3.67063 17.7804 1.57716 15.5591 0.731068 12.2255C0.625182 11.8075 0.596484 11.3704 0.531667 10.9421C0.52276 10.8829 0.510391 10.8247 0.5 10.7656C0.5 10.3866 0.5 10.0077 0.5 9.62827C0.551953 9.26646 0.589063 8.90219 0.657344 8.5438C1.45247 4.38241 5.06841 1.2703 9.40674 1.01849C11.6694 0.886965 13.7471 1.4556 15.5892 2.77233C17.6277 4.22937 18.8949 6.18563 19.3545 8.63865C19.4184 8.97896 19.452 9.32464 19.5 9.66788L19.4995 10.768Z" fill="white"/>
</svg>
