<svg width="76" height="25" viewBox="0 0 76 25" fill="none" xmlns="http://www.w3.org/2000/svg">
<path d="M4.66 4.2V19H1.24V4.2H4.66ZM12.2184 19.16C11.1251 19.16 10.1384 18.9267 9.25844 18.46C8.39177 17.9933 7.7051 17.3267 7.19844 16.46C6.7051 15.5933 6.45844 14.58 6.45844 13.42C6.45844 12.2733 6.71177 11.2667 7.21844 10.4C7.7251 9.52 8.41844 8.84667 9.29844 8.38C10.1784 7.91333 11.1651 7.68 12.2584 7.68C13.3518 7.68 14.3384 7.91333 15.2184 8.38C16.0984 8.84667 16.7918 9.52 17.2984 10.4C17.8051 11.2667 18.0584 12.2733 18.0584 13.42C18.0584 14.5667 17.7984 15.58 17.2784 16.46C16.7718 17.3267 16.0718 17.9933 15.1784 18.46C14.2984 18.9267 13.3118 19.16 12.2184 19.16ZM12.2184 16.2C12.8718 16.2 13.4251 15.96 13.8784 15.48C14.3451 15 14.5784 14.3133 14.5784 13.42C14.5784 12.5267 14.3518 11.84 13.8984 11.36C13.4584 10.88 12.9118 10.64 12.2584 10.64C11.5918 10.64 11.0384 10.88 10.5984 11.36C10.1584 11.8267 9.93844 12.5133 9.93844 13.42C9.93844 14.3133 10.1518 15 10.5784 15.48C11.0184 15.96 11.5651 16.2 12.2184 16.2ZM19.1928 13.42C19.1928 12.26 19.4261 11.2467 19.8928 10.38C20.3728 9.51333 21.0328 8.84667 21.8728 8.38C22.7261 7.91333 23.6995 7.68 24.7928 7.68C26.1928 7.68 27.3595 8.04667 28.2928 8.78C29.2395 9.51333 29.8595 10.5467 30.1528 11.88H26.5128C26.2061 11.0267 25.6128 10.6 24.7328 10.6C24.1061 10.6 23.6061 10.8467 23.2328 11.34C22.8595 11.82 22.6728 12.5133 22.6728 13.42C22.6728 14.3267 22.8595 15.0267 23.2328 15.52C23.6061 16 24.1061 16.24 24.7328 16.24C25.6128 16.24 26.2061 15.8133 26.5128 14.96H30.1528C29.8595 16.2667 29.2395 17.2933 28.2928 18.04C27.3461 18.7867 26.1795 19.16 24.7928 19.16C23.6995 19.16 22.7261 18.9267 21.8728 18.46C21.0328 17.9933 20.3728 17.3267 19.8928 16.46C19.4261 15.5933 19.1928 14.58 19.1928 13.42ZM38.8022 19L35.4022 14.32V19H31.9822V4.2H35.4022V12.38L38.7822 7.84H43.0022L38.3622 13.44L43.0422 19H38.8022ZM55.7455 7.84L48.7455 24.3H45.0655L47.6255 18.62L43.0855 7.84H46.9055L49.4855 14.82L52.0455 7.84H55.7455ZM58.7022 6.68C58.1022 6.68 57.6089 6.50667 57.2222 6.16C56.8489 5.8 56.6622 5.36 56.6622 4.84C56.6622 4.30667 56.8489 3.86667 57.2222 3.52C57.6089 3.16 58.1022 2.98 58.7022 2.98C59.2889 2.98 59.7689 3.16 60.1422 3.52C60.5289 3.86667 60.7222 4.30667 60.7222 4.84C60.7222 5.36 60.5289 5.8 60.1422 6.16C59.7689 6.50667 59.2889 6.68 58.7022 6.68ZM60.4022 7.84V19H56.9822V7.84H60.4022ZM69.6806 7.72C70.9873 7.72 72.0273 8.14667 72.8006 9C73.5873 9.84 73.9806 11 73.9806 12.48V19H70.5806V12.94C70.5806 12.1933 70.3873 11.6133 70.0006 11.2C69.614 10.7867 69.094 10.58 68.4406 10.58C67.7873 10.58 67.2673 10.7867 66.8806 11.2C66.494 11.6133 66.3006 12.1933 66.3006 12.94V19H62.8806V7.84H66.3006V9.32C66.6473 8.82667 67.114 8.44 67.7006 8.16C68.2873 7.86667 68.9473 7.72 69.6806 7.72Z" fill="#333333"/>
</svg>
