<svg width="1728" height="1117" viewBox="0 0 1728 1117" fill="none" xmlns="http://www.w3.org/2000/svg">
<g clip-path="url(#clip0_1_65)">
<path d="M1556.5 536.5L1507 252.5L1762 319.589L1748.47 711L1556.5 536.5Z" fill="#DFCED4"/>
<path d="M1762 717.5L1557 537L1352 673L1347.5 977.5L1762 1044.5V717.5Z" fill="#D4C3C9"/>
<path d="M1370 525.5L1558.5 537L1352 673L1207 687L953 761.5L826 465L898 289L1035.5 397.5V500L1197.5 586L1370 525.5Z" fill="#E4D9DD"/>
<path d="M1047 617.5C1039 603.1 1057 594.5 1067 592C1102 601.5 1114.5 629.5 1088.5 643.5C1062.5 657.5 1057 635.5 1047 617.5Z" fill="#FFD166"/>
<path d="M1588.8 714.006C1592.73 698.01 1611.78 703.952 1620.81 708.923C1640 739.697 1630.11 768.722 1601.53 761.295C1572.95 753.868 1583.88 734.002 1588.8 714.006Z" fill="#EF476F"/>
<path d="M1017 1048L1350.5 977.5L1352 673L1207 680.5L956 758.5L856.5 896.5L1017 1048Z" fill="#DFCED4"/>
<path d="M1225.5 816.5C1215.5 822.5 1206 799.667 1202.5 787.5C1177 787.5 1195.5 864 1216 870C1236.5 876 1263.5 811 1263.5 793.5C1263.5 776 1238 809 1225.5 816.5Z" fill="#06D6A0"/>
<path d="M1197.5 589L1371.5 527L1131 240L1068 231L1110.5 405.5L1032.5 396V498.5L1197.5 589Z" fill="#E1D0D6"/>
<path d="M1032.5 396.5L1113.5 408.5L1069 228L1020.5 137.5L777 191.5L1032.5 396.5Z" fill="#D5C4CA"/>
<path d="M874.5 -32.5L778.5 190.5L1021 140L1068 231L1136.5 241V-23L874.5 -32.5Z" fill="#E4D9DD"/>
<path d="M1505 252L1408.5 -1L1774.5 -22L1760 336L1505 252Z" fill="#E4D9DD"/>
<path d="M1131 -11.5L1406.5 -19L1507 251.5L1557 537.5L1369.5 525.5L1131 240.5V-11.5Z" fill="#D5C4CA"/>
<path d="M994.76 878.724C989.448 852.982 1013.28 828.849 1025.86 820C1049.98 826.838 1032.5 859.82 1028.31 869.071C1024.11 878.322 1052.77 907.281 1054.87 915.326C1056.96 923.37 1033.55 941.47 1025.86 943.883C1018.17 946.296 1001.4 910.901 994.76 878.724Z" fill="#EF476F"/>
<circle cx="1219.5" cy="836.5" r="7.5" fill="#FFFCF9"/>
<path d="M1563.74 101.142C1557.58 111.044 1538.71 95.059 1530.04 85.829C1507.35 97.4625 1558.71 157.098 1579.69 153.084C1600.67 149.071 1595.04 78.912 1587.06 63.3392C1579.08 47.7665 1571.44 88.7657 1563.74 101.142Z" fill="#FFD166"/>
<circle cx="1567.52" cy="121.677" r="7.5" transform="rotate(-27.1431 1567.52 121.677)" fill="#FFFCF9"/>
<path d="M1536.75 849.978C1532.15 837.025 1502.5 821.027 1488.25 814.647C1468.94 821.227 1496 861.636 1497.14 872.362C1498.27 883.088 1539.21 904.325 1550.77 905.943C1562.33 907.561 1542.49 866.169 1536.75 849.978Z" fill="#26547C"/>
<ellipse cx="1618.5" cy="730.5" rx="3.5" ry="7.5" fill="#FFFCF9"/>
<path d="M1593.71 417.937C1580.76 407.755 1594.03 392.859 1602.28 386.684C1638.23 381.899 1660.59 402.88 1642.03 425.851C1623.48 448.822 1609.89 430.665 1593.71 417.937Z" fill="#26547C"/>
<ellipse cx="1620.98" cy="397.687" rx="3.5" ry="7.5" transform="rotate(-65.635 1620.98 397.687)" fill="#FFFCF9"/>
<path d="M937.5 57C940.3 45 974 40.3333 990.5 39.5C1028.5 54 1032.5 85 1027.5 98C1022.5 111 990.5 122.5 990.5 110C990.5 97.5 976 101.5 961 91C946 80.5 934 72 937.5 57Z" fill="#FFD166"/>
<path d="M1205.57 422.318C1177.89 401.723 1160.94 420.163 1147.71 435.086C1165.75 454.448 1174.06 443.378 1188.84 444.787C1203.62 446.196 1210.55 454.859 1218.66 457.41C1226.77 459.961 1233.25 442.912 1205.57 422.318Z" fill="#06D6A0"/>
<path d="M1416.35 222.166C1410.7 163.226 1375.49 156.459 1347.45 151.659C1345.06 195.683 1364.4 197.091 1377.23 219.512C1390.05 241.933 1387.88 259.997 1393.09 273.976C1398.31 287.955 1422 281.105 1416.35 222.166Z" fill="#EF476F"/>
<path d="M1303.37 374.535C1293.76 360.219 1304.2 347.629 1310.62 343.124C1338.08 347.296 1354.6 375.674 1339.95 395.583C1325.29 415.493 1315.38 392.429 1303.37 374.535Z" fill="#26547C"/>
<path d="M979.5 231.5C975.5 221 942.5 232 913 242C916 245 926 237.64 926 246C926 254.36 943.5 252.5 954 252.5C964.5 252.5 970.5 274 979.5 275C988.5 276 983.5 242 979.5 231.5Z" fill="#EF476F"/>
<ellipse cx="964" cy="235.5" rx="8" ry="2.5" fill="#FFFCF9"/>
</g>
<defs>
<clipPath id="clip0_1_65">
<rect width="1728" height="1117" fill="white"/>
</clipPath>
</defs>
</svg>
