<svg width="1728" height="1117" viewBox="0 0 1728 1117" fill="none" xmlns="http://www.w3.org/2000/svg">
<g clip-path="url(#clip0_1_170)">
<path d="M782.5 694C594.037 694 193.333 927.167 -12.5 1002.5L0.5 1352L1855.5 1380L1966.5 229.5L1682 -166.5C1618.5 -66 1622.59 146 1265.5 146C1014.5 146 946 694 782.5 694Z" fill="#26547C"/>
<path d="M1425.94 252.748L1417 240.374C1421.17 240.963 1430.94 242.495 1436.66 243.909C1442.38 245.324 1450.96 239.785 1454.53 236.839L1449.17 231.535C1453.34 230.357 1463.83 228 1472.4 228C1483.13 228 1501 243.909 1501 250.98C1501 258.051 1479.55 252.748 1477.77 258.051C1475.98 263.354 1458.11 270.425 1461.68 265.122C1464.54 260.879 1462.87 257.462 1461.68 256.283L1449.17 254.516C1446.79 256.283 1442.02 259.465 1442.02 258.051C1442.02 256.637 1440.83 252.748 1440.23 250.98L1420.57 259.819L1425.94 252.748Z" fill="#3F7AAE"/>
<path d="M728.277 816.133L722 807.567C724.929 807.975 731.791 809.035 735.809 810.014C739.826 810.993 745.851 807.159 748.362 805.119L744.596 801.448C747.525 800.632 754.889 799 760.915 799C768.447 799 781 810.014 781 814.909C781 819.805 765.936 816.133 764.681 819.805C763.426 823.476 750.872 828.371 753.383 824.7C755.391 821.763 754.22 819.397 753.383 818.581L744.596 817.357C742.922 818.581 739.574 820.784 739.574 819.805C739.574 818.825 738.738 816.133 738.319 814.909L724.511 821.028L728.277 816.133Z" fill="#3F7AAE" fill-opacity="0.3"/>
<path d="M1332.94 296.748L1324 284.374C1328.17 284.963 1337.94 286.495 1343.66 287.909C1349.38 289.324 1357.96 283.785 1361.53 280.839L1356.17 275.535C1360.34 274.357 1370.83 272 1379.4 272C1390.13 272 1408 287.909 1408 294.98C1408 302.051 1386.55 296.748 1384.77 302.051C1382.98 307.354 1365.11 314.425 1368.68 309.122C1371.54 304.879 1369.87 301.462 1368.68 300.283L1356.17 298.516C1353.79 300.283 1349.02 303.465 1349.02 302.051C1349.02 300.637 1347.83 296.748 1347.23 294.98L1327.57 303.819L1332.94 296.748Z" fill="#3F7AAE"/>
<path d="M664.17 847.133L658 838.567C660.879 838.975 667.626 840.035 671.574 841.014C675.523 841.993 681.447 838.159 683.915 836.119L680.213 832.448C683.092 831.632 690.332 830 696.255 830C703.66 830 716 841.014 716 845.909C716 850.805 701.191 847.133 699.957 850.805C698.723 854.476 686.383 859.371 688.851 855.7C690.826 852.763 689.674 850.397 688.851 849.581L680.213 848.357C678.567 849.581 675.277 851.784 675.277 850.805C675.277 849.825 674.454 847.133 674.043 845.909L660.468 852.028L664.17 847.133Z" fill="#3F7AAE" fill-opacity="0.3"/>
<path d="M1453.94 316.748L1445 304.374C1449.17 304.963 1458.94 306.495 1464.66 307.909C1470.38 309.324 1478.96 303.785 1482.53 300.839L1477.17 295.535C1481.34 294.357 1491.83 292 1500.4 292C1511.13 292 1529 307.909 1529 314.98C1529 322.051 1507.55 316.748 1505.77 322.051C1503.98 327.354 1486.11 334.425 1489.68 329.122C1492.54 324.879 1490.87 321.462 1489.68 320.283L1477.17 318.516C1474.79 320.283 1470.02 323.465 1470.02 322.051C1470.02 320.637 1468.83 316.748 1468.23 314.98L1448.57 323.819L1453.94 316.748Z" fill="#3F7AAE"/>
<path d="M748.17 861.133L742 852.567C744.879 852.975 751.626 854.035 755.574 855.014C759.523 855.993 765.447 852.159 767.915 850.119L764.213 846.448C767.092 845.632 774.332 844 780.255 844C787.66 844 800 855.014 800 859.909C800 864.805 785.191 861.133 783.957 864.805C782.723 868.476 770.383 873.371 772.851 869.7C774.826 866.763 773.674 864.397 772.851 863.581L764.213 862.357C762.567 863.581 759.277 865.784 759.277 864.805C759.277 863.825 758.454 861.133 758.043 859.909L744.468 866.028L748.17 861.133Z" fill="#3F7AAE" fill-opacity="0.3"/>
<path d="M1281.94 238.748L1273 226.374C1277.17 226.963 1286.94 228.495 1292.66 229.909C1298.38 231.324 1306.96 225.785 1310.53 222.839L1305.17 217.535C1309.34 216.357 1319.83 214 1328.4 214C1339.13 214 1357 229.909 1357 236.98C1357 244.051 1335.55 238.748 1333.77 244.051C1331.98 249.354 1314.11 256.425 1317.68 251.122C1320.54 246.879 1318.87 243.462 1317.68 242.283L1305.17 240.516C1302.79 242.283 1298.02 245.465 1298.02 244.051C1298.02 242.637 1296.83 238.748 1296.23 236.98L1276.57 245.819L1281.94 238.748Z" fill="#3F7AAE"/>
<path d="M628.277 806.768L622 797.884C624.929 798.307 631.791 799.407 635.809 800.422C639.826 801.437 645.851 797.461 648.362 795.346L644.596 791.538C647.525 790.692 654.889 789 660.915 789C668.447 789 681 800.422 681 805.499C681 810.575 665.936 806.768 664.681 810.575C663.426 814.382 650.872 819.459 653.383 815.652C655.391 812.606 654.22 810.152 653.383 809.306L644.596 808.037C642.922 809.306 639.574 811.59 639.574 810.575C639.574 809.56 638.738 806.768 638.319 805.499L624.511 811.844L628.277 806.768Z" fill="#3F7AAE" fill-opacity="0.3"/>
<path d="M1520.94 199.748L1512 187.374C1516.17 187.963 1525.94 189.495 1531.66 190.909C1537.38 192.324 1545.96 186.785 1549.53 183.839L1544.17 178.535C1548.34 177.357 1558.83 175 1567.4 175C1578.13 175 1596 190.909 1596 197.98C1596 205.051 1574.55 199.748 1572.77 205.051C1570.98 210.354 1553.11 217.425 1556.68 212.122C1559.54 207.879 1557.87 204.462 1556.68 203.283L1544.17 201.516C1541.79 203.283 1537.02 206.465 1537.02 205.051C1537.02 203.637 1535.83 199.748 1535.23 197.98L1515.57 206.819L1520.94 199.748Z" fill="#3F7AAE"/>
<path d="M1390.94 188.748L1382 176.374C1386.17 176.963 1395.94 178.495 1401.66 179.909C1407.38 181.324 1415.96 175.785 1419.53 172.839L1414.17 167.535C1418.34 166.357 1428.83 164 1437.4 164C1448.13 164 1466 179.909 1466 186.98C1466 194.051 1444.55 188.748 1442.77 194.051C1440.98 199.354 1423.11 206.425 1426.68 201.122C1429.54 196.879 1427.87 193.462 1426.68 192.283L1414.17 190.516C1411.79 192.283 1407.02 195.465 1407.02 194.051C1407.02 192.637 1405.83 188.748 1405.23 186.98L1385.57 195.819L1390.94 188.748Z" fill="#3F7AAE"/>
<path d="M1553.94 271.748L1545 259.374C1549.17 259.963 1558.94 261.495 1564.66 262.909C1570.38 264.324 1578.96 258.785 1582.53 255.839L1577.17 250.535C1581.34 249.357 1591.83 247 1600.4 247C1611.13 247 1629 262.909 1629 269.98C1629 277.051 1607.55 271.748 1605.77 277.051C1603.98 282.354 1586.11 289.425 1589.68 284.122C1592.54 279.879 1590.87 276.462 1589.68 275.283L1577.17 273.516C1574.79 275.283 1570.02 278.465 1570.02 277.051C1570.02 275.637 1568.83 271.748 1568.23 269.98L1548.57 278.819L1553.94 271.748Z" fill="#3F7AAE"/>
<path d="M794.277 779.133L788 770.567C790.929 770.975 797.791 772.035 801.809 773.014C805.826 773.993 811.851 770.159 814.362 768.119L810.596 764.448C813.525 763.632 820.889 762 826.915 762C834.447 762 847 773.014 847 777.909C847 782.805 831.936 779.133 830.681 782.805C829.426 786.476 816.872 791.371 819.383 787.7C821.391 784.763 820.22 782.397 819.383 781.581L810.596 780.357C808.922 781.581 805.574 783.784 805.574 782.805C805.574 781.825 804.738 779.133 804.319 777.909L790.511 784.028L794.277 779.133Z" fill="#3F7AAE" fill-opacity="0.3"/>
<path d="M1560.38 1094.26C1560.68 1100.78 1560.64 1107.34 1560.49 1113.87L1560.58 1118.65C1561.08 1118.99 1561.46 1124.68 1561.87 1125.82C1563.78 1131.06 1564.95 1131.25 1569.12 1131.96L1569.41 1132.01C1575.17 1132.98 1581.35 1132.93 1587.15 1132.99C1591.22 1133.03 1595.25 1133 1599.31 1132.56C1600.87 1132.39 1602.25 1133.15 1602.88 1130.96C1604.06 1126.9 1604.71 1124.01 1604.71 1119.75L1605.51 1111.91C1607.77 1109.97 1607.33 1103.35 1609.3 1101.03C1611.91 1097.95 1614.57 1094.98 1617.41 1092.18C1620.56 1089.08 1625.77 1085.56 1629.78 1085.56C1631.63 1085.56 1633.74 1084.13 1635.57 1083.66C1637.69 1083.13 1639.9 1083.36 1642.04 1083.36C1646.97 1083.36 1649.82 1079.52 1653.8 1075.67C1656.74 1072.83 1658.05 1070.79 1657.64 1065.71C1657.3 1061.52 1653.64 1062.39 1651.46 1061.3C1650.06 1060.6 1648.67 1060.86 1647.21 1060.44C1645.57 1059.98 1642.83 1060.45 1641.41 1059.37C1640.06 1058.34 1639.32 1058.43 1638.81 1056.06C1638.14 1052.99 1638 1050.59 1638 1047.33C1638 1043.42 1638.1 1040.21 1638.89 1036.48C1639.66 1032.92 1641.46 1031.09 1643.31 1028.64C1646.03 1025.04 1649.76 1025.46 1653.34 1025.46C1659.33 1025.46 1665.16 1025.18 1671.03 1023.37C1676.08 1021.82 1680.04 1021.42 1683.73 1016.08C1686.93 1011.46 1688.75 1004.38 1690.06 998.435C1691.14 993.574 1692.36 983.348 1689.17 979.564C1686.24 976.092 1685.51 977.014 1682.69 979.717C1679.38 982.874 1675.55 987.958 1671.28 987.958C1667.44 987.958 1662.65 988.14 1659.71 984.098C1657.65 981.272 1660.07 976.373 1661.67 974.172C1663.22 972.047 1665.32 970.648 1667.2 969.086C1676.32 961.506 1683.02 952.287 1688.32 939.492C1689.45 936.786 1690.84 934.061 1691.69 931.16C1692.28 929.113 1692.3 926.971 1693.05 924.971C1694.71 920.519 1696.11 915.927 1697.28 911.185C1699.33 902.941 1698.98 894.832 1698.98 886.217C1698.98 879.25 1699.17 872.424 1698.17 865.569C1697.53 861.107 1693.25 855.832 1690.08 854.816C1682.37 852.34 1678.43 856.837 1676.69 866.856C1675.71 872.51 1675.31 877.854 1675.31 883.644C1675.31 885.037 1675.09 886.353 1674.69 887.627C1673.52 891.294 1671.4 894.752 1669.51 897.736C1667.9 900.302 1666.09 903.667 1663.72 904.936C1656.57 908.759 1658.46 875.337 1658.46 871.972C1658.46 864.311 1658.76 856.513 1658.37 848.873C1657.85 838.607 1658.55 827.693 1657.26 817.563C1656.66 812.908 1655.29 808.257 1653.96 803.9C1653.02 800.827 1652.24 800.356 1649.73 799.611C1643.63 797.808 1636.5 800.056 1631.81 805.554C1619.55 819.906 1622.7 848.991 1627.08 867.315C1630.55 881.811 1634.72 895.894 1638.31 910.327C1640.78 920.229 1643.22 931.85 1643.22 942.403L1643.22 942.746C1643.22 956.062 1643.22 981.34 1629.58 981.34C1626.78 981.34 1627.41 979.515 1627.15 976.102C1626.8 971.506 1626.37 967.052 1626.37 962.377C1626.37 956.349 1625.57 950.332 1625.57 944.394C1625.57 940.663 1624.99 935.62 1622.78 933.151C1621.26 931.446 1617.15 930.663 1615.34 931.772C1613.36 932.979 1613.93 936.515 1613.93 938.88C1613.93 945.006 1615.43 951.05 1616.03 957.077C1616.64 963.198 1618.22 969 1618.75 975.152C1619.48 983.706 1619.95 992.34 1619.95 1000.95C1619.95 1015.04 1620.51 1028.13 1616.34 1041.32C1613.74 1049.56 1609.67 1056.37 1604.71 1062.13C1601.5 1065.85 1597.41 1071.78 1592.9 1071.78C1588.48 1071.78 1583.27 1070.38 1579.24 1067.92C1575.62 1065.71 1577.43 1054.65 1577.43 1050.39C1577.43 1043.22 1583.17 1041.4 1586.26 1037.04C1587.58 1035.17 1587.38 1031.66 1586.17 1029.99C1585.69 1029.33 1584.83 1029.27 1584.25 1028.89C1582.51 1027.75 1580.75 1026.67 1579.03 1025.46C1575.09 1022.67 1578.4 1012.23 1581.44 1010.14C1588.21 1005.49 1594.12 998.597 1599.07 990.746C1602.52 985.274 1606.31 979.096 1606.31 971.598C1606.31 968.414 1606.68 963.85 1603.68 965.349C1601.82 966.28 1600.03 969.158 1598.62 970.986C1595.97 974.427 1593.35 978.087 1590.11 980.483C1586.67 983.03 1581.45 974.861 1579.66 971.69C1577.55 967.964 1579.01 961.081 1579.66 957.016C1580.55 951.448 1581.62 947.619 1584.67 943.843C1589.31 938.102 1594 932.192 1598.87 926.779C1601.73 923.601 1606.49 918.605 1607.83 913.636C1609.73 906.59 1611.57 898.448 1607.2 892.681C1606.22 891.386 1603.2 890.734 1601.9 891.579C1599.15 893.366 1599.49 898.335 1599.49 901.872C1599.49 907.114 1599.04 910.827 1597 915.29C1595.18 919.274 1590.93 920.391 1587.95 921.663C1585.48 922.716 1585.85 899.475 1585.85 895.592C1585.85 888.747 1586.38 881.979 1586.63 875.158C1586.91 867.645 1587.12 860.09 1587.66 852.58C1588.19 845.111 1587.61 828.19 1580.02 828.041C1570.88 827.861 1561.28 831.992 1557.37 844.461C1554.65 853.172 1555.25 862.861 1555.37 872.156C1555.44 877.373 1555.82 882.08 1557.4 886.83C1558.92 891.413 1560.17 895.999 1561.79 900.555C1563.24 904.639 1565.05 908.371 1566.88 912.139L1567.02 912.441C1569.15 916.821 1571.81 920.161 1571.81 925.921C1571.81 931.649 1569.84 934.556 1566.38 937.225C1564.63 938.569 1559.23 938.611 1557.6 936.368C1556.87 935.367 1556.97 933.777 1556.97 932.508V920.161C1556.97 915.33 1556.3 911.001 1553.99 907.233C1552.6 904.977 1546.84 905.97 1545.29 907.233C1543.36 908.811 1539.89 909.481 1538.36 911.583C1537.97 912.128 1537.69 912.741 1537.72 913.514C1537.99 920.174 1542.37 926.778 1544.76 932.14C1548.99 941.635 1553.39 950.95 1559.38 958.609C1562.19 962.205 1565.93 966.61 1563.39 971.843C1562.39 973.908 1559.86 975.451 1558.18 974.294C1556.31 973.011 1555.34 970.374 1554.79 967.738C1554.28 965.317 1553.91 962.627 1553.05 960.386C1552.65 959.353 1551.65 959.357 1550.95 958.854C1550.39 958.444 1549.08 957.016 1547.74 956.648C1545.73 955.312 1544.04 955.96 1542.93 955.974C1540.12 956.011 1535.01 956.205 1534.53 961.519C1534.07 966.548 1535.77 970.716 1537.52 974.999C1540.14 981.424 1543.16 987.721 1546.94 992.921C1552.45 1000.49 1562.86 1004.75 1563.77 1017.21C1564.13 1022.11 1564.13 1027.15 1561.96 1031.21C1560.06 1034.78 1557.97 1036.55 1554.99 1037.07C1552.74 1037.45 1551.55 1038.56 1550.53 1035.08C1549.64 1032.02 1549.35 1028.23 1549.35 1024.9C1549.35 1021.8 1548.84 1018.83 1548.46 1015.77C1548.29 1014.43 1548.32 1012.54 1547.34 1011.79C1544.87 1009.9 1541.13 1009.35 1538.3 1009.46C1535.12 1009.59 1531.38 1012.29 1529.38 1015.65C1528.16 1017.7 1530.19 1023.61 1530.9 1025.42C1533.35 1031.68 1538.26 1037.02 1541.77 1042.09C1546.08 1048.31 1550.95 1054.48 1554.54 1061.57C1557.19 1066.8 1557.68 1071.79 1558.78 1077.84C1559.77 1083.33 1560.13 1088.62 1560.38 1094.26Z" fill="#06D6A0" fill-opacity="0.4"/>
<path d="M333.444 1131.01C333.665 1135.89 333.637 1140.79 333.527 1145.68L333.594 1149.26C333.967 1149.52 334.251 1153.77 334.559 1154.62C335.983 1158.54 336.855 1158.69 339.971 1159.22L340.187 1159.26C344.491 1159.99 349.109 1159.94 353.439 1159.99C356.485 1160.02 359.495 1160 362.529 1159.67C363.692 1159.54 364.718 1160.11 365.193 1158.48C366.076 1155.43 366.558 1153.27 366.558 1150.08L367.158 1144.21C368.843 1142.76 368.52 1137.81 369.988 1136.07C371.942 1133.77 373.925 1131.55 376.048 1129.45C378.398 1127.12 382.291 1124.49 385.288 1124.49C386.67 1124.49 388.244 1123.42 389.617 1123.07C391.194 1122.67 392.847 1122.84 394.445 1122.84C398.132 1122.84 400.259 1119.97 403.235 1117.09C405.433 1114.96 406.406 1113.43 406.099 1109.63C405.846 1106.49 403.112 1107.15 401.487 1106.33C400.44 1105.81 399.403 1106 398.307 1105.69C397.084 1105.34 395.035 1105.7 393.979 1104.89C392.968 1104.11 392.413 1104.19 392.031 1102.41C391.536 1100.11 391.432 1098.32 391.432 1095.88C391.432 1092.95 391.501 1090.55 392.097 1087.76C392.667 1085.09 394.011 1083.72 395.394 1081.89C397.429 1079.19 400.212 1079.5 402.886 1079.5C407.365 1079.5 411.722 1079.3 416.105 1077.94C419.876 1076.78 422.838 1076.48 425.595 1072.49C427.98 1069.03 429.343 1063.73 430.323 1059.28C431.124 1055.64 432.041 1047.99 429.657 1045.15C427.47 1042.55 426.923 1043.24 424.812 1045.27C422.346 1047.63 419.48 1051.44 416.288 1051.44C413.422 1051.44 409.844 1051.57 407.647 1048.55C406.112 1046.43 407.916 1042.76 409.113 1041.12C410.267 1039.53 411.837 1038.48 413.241 1037.31C420.054 1031.64 425.059 1024.74 429.024 1015.16C429.863 1013.13 430.908 1011.09 431.538 1008.92C431.983 1007.39 431.997 1005.79 432.554 1004.29C433.793 1000.96 434.837 997.52 435.717 993.971C437.247 987.8 436.983 981.731 436.983 975.282C436.983 970.067 437.128 964.958 436.383 959.827C435.898 956.487 432.705 952.539 430.34 951.778C424.574 949.925 421.636 953.291 420.334 960.79C419.599 965.023 419.302 969.022 419.302 973.356C419.302 974.399 419.138 975.384 418.835 976.337C417.963 979.082 416.378 981.671 414.973 983.904C413.765 985.825 412.417 988.344 410.644 989.293C405.301 992.155 406.715 967.138 406.715 964.62C406.715 958.885 406.94 953.049 406.648 947.33C406.257 939.646 406.785 931.477 405.816 923.895C405.371 920.41 404.345 916.929 403.352 913.668C402.652 911.367 402.07 911.015 400.189 910.457C395.636 909.108 390.311 910.79 386.803 914.906C377.647 925.648 380.003 947.418 383.274 961.134C385.861 971.984 388.975 982.526 391.665 993.329C393.509 1000.74 395.327 1009.44 395.327 1017.34L395.327 1017.59C395.328 1027.56 395.33 1046.48 385.138 1046.48C383.049 1046.48 383.519 1045.12 383.324 1042.56C383.061 1039.12 382.741 1035.79 382.741 1032.29C382.741 1027.78 382.142 1023.27 382.142 1018.83C382.142 1016.04 381.712 1012.26 380.06 1010.41C378.92 1009.14 375.856 1008.55 374.5 1009.38C373.024 1010.28 373.451 1012.93 373.451 1014.7C373.451 1019.29 374.567 1023.81 375.016 1028.32C375.472 1032.9 376.656 1037.25 377.047 1041.85C377.59 1048.25 377.946 1054.72 377.946 1061.16C377.946 1071.7 378.36 1081.5 375.249 1091.38C373.309 1097.54 370.269 1102.64 366.558 1106.95C364.16 1109.74 361.107 1114.17 357.734 1114.17C354.433 1114.17 350.545 1113.13 347.529 1111.28C344.828 1109.63 346.18 1101.35 346.18 1098.17C346.18 1092.8 350.468 1091.44 352.773 1088.17C353.76 1086.77 353.615 1084.15 352.707 1082.9C352.35 1082.41 351.712 1082.36 351.275 1082.07C349.975 1081.22 348.661 1080.41 347.379 1079.5C344.433 1077.42 346.902 1069.6 349.177 1068.04C354.231 1064.56 358.648 1059.4 362.346 1053.52C364.923 1049.43 367.757 1044.8 367.757 1039.19C367.757 1036.81 368.032 1033.39 365.792 1034.51C364.4 1035.21 363.065 1037.36 362.013 1038.73C360.033 1041.31 358.072 1044.05 355.653 1045.84C353.082 1047.75 349.185 1041.63 347.845 1039.26C346.27 1036.47 347.359 1031.32 347.845 1028.28C348.511 1024.11 349.311 1021.24 351.591 1018.42C355.057 1014.12 358.558 1009.69 362.196 1005.64C364.332 1003.26 367.889 999.525 368.889 995.805C370.307 990.532 371.682 984.437 368.423 980.121C367.691 979.151 365.429 978.664 364.461 979.295C362.409 980.634 362.662 984.353 362.662 987C362.662 990.924 362.321 993.703 360.798 997.044C359.438 1000.03 356.266 1000.86 354.038 1001.81C352.194 1002.6 352.473 985.206 352.473 982.299C352.473 977.176 352.866 972.11 353.056 967.004C353.266 961.381 353.422 955.726 353.822 950.104C354.22 944.514 353.786 931.849 348.111 931.737C341.283 931.603 334.113 934.695 331.196 944.028C329.159 950.548 329.608 957.8 329.698 964.757C329.749 968.663 330.033 972.186 331.213 975.741C332.352 979.172 333.282 982.604 334.493 986.014C335.578 989.071 336.93 991.865 338.296 994.685L338.405 994.911C339.992 998.189 341.985 1000.69 341.985 1005C341.985 1009.29 340.513 1011.46 337.922 1013.46C336.618 1014.47 332.582 1014.5 331.363 1012.82C330.819 1012.07 330.897 1010.88 330.897 1009.93V1000.69C330.897 997.073 330.398 993.833 328.666 991.013C327.628 989.324 323.329 990.067 322.173 991.013C320.729 992.194 318.138 992.695 316.995 994.269C316.699 994.677 316.489 995.135 316.512 995.714C316.713 1000.7 319.989 1005.64 321.773 1009.66C324.931 1016.76 328.22 1023.73 332.695 1029.47C334.796 1032.16 337.588 1035.46 335.692 1039.37C334.943 1040.92 333.053 1042.07 331.796 1041.21C330.401 1040.25 329.681 1038.27 329.265 1036.3C328.883 1034.49 328.611 1032.48 327.966 1030.8C327.669 1030.02 326.921 1030.03 326.402 1029.65C325.978 1029.34 325 1028.28 324 1028C322.5 1027 321.234 1027.48 320.408 1027.5C318.305 1027.52 314.492 1027.67 314.131 1031.65C313.79 1035.41 315.057 1038.53 316.362 1041.74C318.321 1046.55 320.579 1051.26 323.405 1055.15C327.52 1060.82 335.297 1064 335.975 1073.33C336.241 1077 336.244 1080.77 334.626 1083.81C333.204 1086.49 331.642 1087.81 329.415 1088.19C327.734 1088.48 326.843 1089.31 326.085 1086.7C325.421 1084.42 325.203 1081.58 325.203 1079.09C325.203 1076.76 324.819 1074.54 324.537 1072.26C324.413 1071.25 324.434 1069.83 323.704 1069.28C321.854 1067.86 319.06 1067.45 316.945 1067.53C314.572 1067.63 311.781 1069.65 310.286 1072.16C309.375 1073.7 310.887 1078.12 311.418 1079.48C313.247 1084.16 316.916 1088.16 319.542 1091.95C322.763 1096.61 326.401 1101.23 329.082 1106.54C331.056 1110.45 331.423 1114.19 332.245 1118.71C332.99 1122.82 333.252 1126.78 333.444 1131.01Z" fill="#06D6A0"/>
<path d="M1471 1142.43C1471.22 1147.4 1471.19 1152.41 1471.08 1157.39L1471.15 1161.04C1471.53 1161.31 1471.82 1165.65 1472.14 1166.52C1473.6 1170.52 1474.49 1170.67 1477.68 1171.2L1477.9 1171.24C1482.31 1171.99 1487.03 1171.94 1491.47 1171.99C1494.58 1172.02 1497.66 1172 1500.77 1171.66C1501.96 1171.53 1503.01 1172.11 1503.5 1170.45C1504.4 1167.34 1504.89 1165.14 1504.89 1161.89L1505.51 1155.9C1507.23 1154.42 1506.9 1149.36 1508.4 1147.59C1510.4 1145.24 1512.43 1142.98 1514.61 1140.83C1517.01 1138.46 1521 1135.78 1524.07 1135.78C1525.48 1135.78 1527.09 1134.69 1528.5 1134.33C1530.11 1133.92 1531.8 1134.1 1533.44 1134.1C1537.21 1134.1 1539.39 1131.17 1542.44 1128.23C1544.69 1126.06 1545.68 1124.5 1545.37 1120.63C1545.11 1117.42 1542.31 1118.09 1540.65 1117.26C1539.58 1116.72 1538.51 1116.92 1537.39 1116.6C1536.14 1116.25 1534.04 1116.61 1532.96 1115.78C1531.93 1115 1531.36 1115.07 1530.97 1113.26C1530.46 1110.91 1530.36 1109.08 1530.36 1106.59C1530.36 1103.61 1530.43 1101.16 1531.04 1098.31C1531.62 1095.59 1533 1094.2 1534.41 1092.33C1536.49 1089.57 1539.34 1089.89 1542.08 1089.89C1546.67 1089.89 1551.13 1089.68 1555.61 1088.3C1559.47 1087.11 1562.5 1086.81 1565.33 1082.74C1567.77 1079.21 1569.16 1073.8 1570.17 1069.26C1570.99 1065.55 1571.92 1057.74 1569.48 1054.86C1567.25 1052.2 1566.69 1052.91 1564.52 1054.97C1562 1057.38 1559.07 1061.26 1555.8 1061.26C1552.86 1061.26 1549.2 1061.4 1546.95 1058.32C1545.38 1056.16 1547.23 1052.42 1548.45 1050.74C1549.64 1049.12 1551.24 1048.05 1552.68 1046.86C1559.65 1041.07 1564.78 1034.03 1568.84 1024.26C1569.69 1022.2 1570.76 1020.12 1571.41 1017.9C1571.86 1016.34 1571.88 1014.7 1572.45 1013.18C1573.72 1009.78 1574.79 1006.27 1575.69 1002.65C1577.25 996.356 1576.98 990.165 1576.98 983.588C1576.98 978.268 1577.13 973.057 1576.37 967.824C1575.87 964.417 1572.6 960.389 1570.18 959.614C1564.28 957.724 1561.27 961.157 1559.94 968.806C1559.19 973.123 1558.88 977.203 1558.88 981.623C1558.88 982.687 1558.72 983.691 1558.41 984.664C1557.51 987.464 1555.89 990.104 1554.45 992.382C1553.22 994.341 1551.84 996.91 1550.02 997.879C1544.55 1000.8 1546 975.281 1546 972.712C1546 966.863 1546.23 960.91 1545.93 955.076C1545.53 947.239 1546.07 938.906 1545.08 931.173C1544.62 927.618 1543.57 924.067 1542.56 920.741C1541.84 918.395 1541.24 918.035 1539.32 917.466C1534.66 916.09 1529.21 917.806 1525.62 922.004C1516.25 932.961 1518.66 955.167 1522 969.157C1524.65 980.224 1527.84 990.976 1530.59 1002C1532.48 1009.55 1534.34 1018.43 1534.34 1026.48L1534.34 1026.75C1534.34 1036.91 1534.35 1056.21 1523.91 1056.21C1521.77 1056.21 1522.26 1054.82 1522.06 1052.21C1521.79 1048.7 1521.46 1045.3 1521.46 1041.73C1521.46 1037.13 1520.85 1032.54 1520.85 1028C1520.85 1025.16 1520.41 1021.31 1518.72 1019.42C1517.55 1018.12 1514.41 1017.52 1513.02 1018.37C1511.51 1019.29 1511.95 1021.99 1511.95 1023.79C1511.95 1028.47 1513.09 1033.09 1513.55 1037.69C1514.02 1042.36 1515.23 1046.79 1515.63 1051.49C1516.19 1058.02 1516.55 1064.61 1516.55 1071.18C1516.55 1081.94 1516.97 1091.93 1513.79 1102.01C1511.8 1108.29 1508.69 1113.49 1504.89 1117.89C1502.44 1120.73 1499.31 1125.26 1495.86 1125.26C1492.48 1125.26 1488.5 1124.19 1485.42 1122.31C1482.65 1120.62 1484.03 1112.18 1484.03 1108.93C1484.03 1103.45 1488.42 1102.07 1490.78 1098.73C1491.79 1097.31 1491.65 1094.63 1490.72 1093.35C1490.35 1092.85 1489.7 1092.8 1489.25 1092.51C1487.92 1091.64 1486.57 1090.82 1485.26 1089.89C1482.25 1087.76 1484.77 1079.8 1487.1 1078.2C1492.28 1074.65 1496.8 1069.39 1500.58 1063.39C1503.22 1059.22 1506.12 1054.5 1506.12 1048.77C1506.12 1046.34 1506.4 1042.86 1504.11 1044C1502.68 1044.71 1501.32 1046.91 1500.24 1048.31C1498.21 1050.93 1496.21 1053.73 1493.73 1055.56C1491.1 1057.5 1487.11 1051.26 1485.74 1048.84C1484.13 1046 1485.24 1040.74 1485.74 1037.64C1486.42 1033.39 1487.24 1030.47 1489.57 1027.58C1493.12 1023.2 1496.7 1018.69 1500.43 1014.56C1502.62 1012.13 1506.26 1008.32 1507.28 1004.52C1508.73 999.142 1510.14 992.926 1506.8 988.523C1506.05 987.534 1503.74 987.037 1502.75 987.681C1500.65 989.046 1500.91 992.84 1500.91 995.54C1500.91 999.542 1500.56 1002.38 1499 1005.78C1497.61 1008.83 1494.36 1009.68 1492.08 1010.65C1490.19 1011.45 1490.48 993.71 1490.48 990.745C1490.48 985.52 1490.88 980.352 1491.07 975.145C1491.29 969.409 1491.45 963.641 1491.86 957.907C1492.26 952.204 1491.82 939.286 1486.01 939.172C1479.02 939.035 1471.68 942.189 1468.7 951.708C1466.61 958.359 1467.07 965.756 1467.16 972.852C1467.22 976.836 1467.51 980.43 1468.71 984.056C1469.88 987.555 1470.83 991.056 1472.07 994.534C1473.18 997.653 1474.57 1000.5 1475.96 1003.38L1476.08 1003.61C1477.7 1006.95 1479.74 1009.5 1479.74 1013.9C1479.74 1018.27 1478.23 1020.49 1475.58 1022.53C1474.25 1023.56 1470.12 1023.59 1468.87 1021.88C1468.31 1021.11 1468.39 1019.9 1468.39 1018.93V1009.5C1468.39 1005.81 1467.88 1002.51 1466.11 999.633C1465.04 997.911 1460.64 998.668 1459.46 999.633C1457.98 1000.84 1455.33 1001.35 1454.16 1002.95C1453.86 1003.37 1453.64 1003.84 1453.67 1004.43C1453.87 1009.51 1457.23 1014.55 1459.05 1018.65C1462.28 1025.9 1465.65 1033.01 1470.23 1038.86C1472.38 1041.6 1475.24 1044.97 1473.3 1048.96C1472.53 1050.54 1470.6 1051.72 1469.31 1050.83C1467.88 1049.85 1467.15 1047.84 1466.72 1045.83C1466.33 1043.98 1466.05 1041.93 1465.39 1040.21C1465.09 1039.42 1464.32 1039.43 1463.79 1039.04C1463.36 1038.73 1462.35 1037.64 1461.33 1037.36C1459.8 1036.34 1458.5 1036.83 1457.65 1036.85C1455.5 1036.87 1451.6 1037.02 1451.23 1041.08C1450.88 1044.92 1452.18 1048.1 1453.51 1051.37C1455.52 1056.28 1457.83 1061.08 1460.72 1065.05C1464.93 1070.83 1472.89 1074.08 1473.59 1083.6C1473.86 1087.34 1473.86 1091.19 1472.21 1094.29C1470.75 1097.01 1469.15 1098.37 1466.87 1098.76C1465.15 1099.05 1464.24 1099.9 1463.47 1097.24C1462.79 1094.91 1462.56 1092.01 1462.56 1089.47C1462.56 1087.1 1462.17 1084.83 1461.88 1082.5C1461.75 1081.48 1461.77 1080.03 1461.03 1079.46C1459.13 1078.02 1456.27 1077.6 1454.11 1077.68C1451.68 1077.78 1448.82 1079.84 1447.29 1082.41C1446.36 1083.97 1447.91 1088.48 1448.45 1089.87C1450.32 1094.64 1454.08 1098.72 1456.77 1102.59C1460.06 1107.34 1463.79 1112.06 1466.53 1117.47C1468.55 1121.46 1468.93 1125.27 1469.77 1129.89C1470.53 1134.08 1470.8 1138.12 1471 1142.43Z" fill="#06D6A0"/>
</g>
<defs>
<clipPath id="clip0_1_170">
<rect width="1728" height="1117" fill="white"/>
</clipPath>
</defs>
</svg>
