<svg width="735" height="1076" viewBox="0 0 735 1076" fill="none" xmlns="http://www.w3.org/2000/svg">
<path d="M195.621 512.342C241.623 434.873 306.146 146.892 332.657 12.5845C474.946 51.0605 750.383 140.804 713.823 191.968C677.262 243.133 543.453 527.822 481.118 663.771C487.877 743.752 462.808 810.474 449.428 833.838C456.369 852.305 435.758 928.763 391.968 937.168C358.693 943.556 347.271 931.145 345.33 923.117C349.863 949.51 330.221 982.247 288.086 994.035C253.852 1003.61 237.538 978.992 233.661 965.485C220.097 977.266 184.895 997.762 152.597 985.502C120.693 973.392 127.875 909.942 135.686 878.607C129.416 896.224 42.3838 901.173 32.242 857.677C21.8833 813.25 138.119 609.177 195.621 512.342Z" fill="#FFF7E2"/>
<path d="M241.554 285.345C242.522 234.673 295.235 100.844 321.471 40.2639L723.756 171.442C657.679 314.452 520.863 602.842 502.217 612.318C479.105 624.063 456.702 597.797 418.986 553.577L418.033 552.459C379.74 507.565 334.145 538.068 291.31 543.544C257.042 547.926 218.362 513.276 203.305 495.403C215.652 446.497 240.587 336.017 241.554 285.345Z" fill="#FA7721"/>
<ellipse cx="106.492" cy="838.679" rx="29.7836" ry="32.8647" transform="rotate(18.0602 106.492 838.679)" fill="#FAB6B5"/>
<path d="M279.212 729.722C259.752 733.747 250.323 682.493 222.41 685.274C188.999 691.663 190.74 709.515 176.349 743.711C161.957 777.907 192.269 843.964 240.793 864.107C289.317 884.251 313.175 857.463 339.05 841.055C364.925 824.647 375.156 750.205 355.203 728.576C335.25 706.946 303.538 724.691 279.212 729.722Z" fill="#FAB6B5"/>
<ellipse cx="181.804" cy="932.372" rx="29.7836" ry="32.8647" transform="rotate(18.0602 181.804 932.372)" fill="#FAB6B5"/>
<ellipse cx="283.543" cy="945.023" rx="29.7836" ry="35.9457" transform="rotate(18.0602 283.543 945.023)" fill="#FAB6B5"/>
<ellipse cx="385.727" cy="876.8" rx="29.7836" ry="35.9457" transform="rotate(18.0602 385.727 876.8)" fill="#FAB6B5"/>
<path d="M415.675 191.969C456.395 181.05 618.664 225.393 687.225 247.03L629.914 373.094C538.902 345.217 353.188 281.562 338.432 249.96C319.986 210.458 364.773 205.618 415.675 191.969Z" fill="#C5611D"/>
<path d="M435.523 396.126C439.207 363.624 307.208 325.838 240.748 311.008C231.069 340.692 226.357 394.896 225.211 418.287C260.496 433.754 339.244 463.465 371.95 458.574C412.832 452.461 430.917 436.753 435.523 396.126Z" fill="#C5611D"/>
</svg>
