<svg width="812" height="590" viewBox="0 0 812 590" fill="none" xmlns="http://www.w3.org/2000/svg">
<path d="M594.858 177.525C597.982 162.426 626.098 158.217 639.766 158C667.751 175.572 669.053 217.225 668.402 221.781C667.751 226.337 653.433 231.544 639.766 233.496C628.832 235.058 628.701 247.164 630.003 253.021C640.416 276.451 611.129 310.294 592.255 324.612C573.381 338.931 464.692 360.408 458.835 362.361C452.977 364.313 343.638 418.332 336.479 420.284C330.752 421.846 251.654 417.464 212.821 415.078C209.133 419.85 196.681 426.142 191.995 423.538C187.309 420.935 202.625 399.458 208.916 387.743C215.859 394.251 235.47 405.315 258.379 397.505C281.289 389.695 319.991 384.706 336.479 383.187L354.051 372.123C347.543 371.906 332.314 371.602 323.462 372.123C312.398 372.774 221.282 329.168 208.916 322.66C199.024 317.453 188.741 324.829 184.836 329.168L197.201 290.769C202.408 291.637 211.78 289.077 212.821 295.325C213.817 301.299 234.131 313.7 243.496 318.758C271.09 318.97 312.118 330.958 329.32 336.978L421.087 318.755C424.341 313.982 433.713 302.614 445.168 295.325C459.486 286.213 477.058 298.579 486.17 291.42C491.234 287.441 554.29 254.106 586.398 237.401C591.17 234.581 600.976 227.509 602.017 221.781C603.319 214.622 590.953 196.399 594.858 177.525Z" fill="#234372"/>
<path d="M641.067 179.477C641.588 168.543 649.962 169.715 654.084 171.667C666.58 178.957 668.402 203.775 667.751 215.273C666.45 215.056 661.503 214.102 652.131 212.019C640.416 209.416 640.416 193.145 641.067 179.477Z" fill="#FFC29A"/>
<path d="M503.742 394.902C504.263 392.299 495.715 388.177 491.376 386.441C488.556 389.261 482.004 396.073 478.36 400.759C473.804 406.617 471.852 428.745 478.36 434.603C484.868 440.46 503.091 398.156 503.742 394.902Z" fill="#FFC29A"/>
<path d="M408.07 282.959C415.88 285.042 423.907 279.488 426.944 276.451L439.31 291.42C433.886 292.939 417.312 300.402 410.023 305.088C400.911 310.945 395.704 301.833 395.054 294.674C394.403 287.515 398.308 280.356 408.07 282.959Z" fill="#FFC29A"/>
<path d="M555.808 198.351C542.792 197.701 419.134 253.672 417.833 254.323C420.436 272.546 438.876 299.23 447.771 310.294C485.519 292.939 562.317 257.707 567.523 255.624C574.032 253.021 585.747 243.259 586.397 227.639C587.048 212.019 568.825 199.002 555.808 198.351Z" fill="#364246"/>
<path d="M592.906 199.653C589.261 197.57 575.333 203.775 569.476 206.161L579.889 226.988C585.313 224.602 596.55 219.308 598.112 217.226C600.065 214.622 600.716 211.368 599.414 207.463C598.112 203.558 597.462 202.256 592.906 199.653Z" fill="#364246"/>
<path d="M200.456 286.213C208.266 283.089 212.387 290.552 213.472 294.674C197.852 296.757 193.513 316.802 193.296 326.565C191.127 328.083 184.055 333.333 173.121 342.185C167.497 346.737 153.9 367.911 135.373 381.885C108.871 401.875 75.0049 416.108 63.1305 422.237C46.9899 430.567 14.7522 430.914 0.650879 430.047L3.2542 377.33C81.3538 387.743 97.6245 370.821 115.848 361.71C134.071 352.598 190.693 290.118 200.456 286.213Z" fill="#212C48"/>
<path d="M615.685 260.831C603.71 252.501 588.567 267.773 582.493 276.451C554.507 279.054 521.315 310.294 511.552 322.009C503.742 331.381 494.414 369.303 490.726 387.092L503.742 396.204C510.25 382.97 523.788 355.201 525.87 349.995C528.474 343.486 572.73 304.437 586.398 308.342C600.065 312.247 613.082 303.786 623.495 295.325C633.908 286.864 630.654 271.244 615.685 260.831Z" fill="#41537B"/>
<path d="M191.995 386.441C197.722 380.193 207.831 386.007 212.17 389.695C211.52 390.563 204.557 393.791 200.455 403.363C198.525 407.866 198.503 417.668 202.903 422.713C202.96 422.759 203.012 422.817 203.059 422.888C203.006 422.83 202.954 422.772 202.903 422.713C201.902 421.905 199.347 424.911 195.9 435.253C191.344 448.921 158.802 513.353 137.976 540.037C121.315 561.384 78.5333 581.907 59.2254 589.5L43.6055 540.037C82.1346 543.682 122.573 508.58 137.976 490.574C153.596 470.398 184.835 394.251 191.995 386.441Z" fill="#212C48"/>
<path d="M596.16 202.256L644.972 187.287L647.575 199.653L603.319 217.876L596.16 202.256Z" fill="#756857"/>
<path d="M644.972 180.128C646.013 174.922 653.216 174.488 656.687 174.922C665.148 177.525 667.1 191.843 666.449 193.145C665.798 194.446 662.544 207.463 660.592 210.066C658.639 212.67 651.48 204.86 648.226 202.256C644.972 199.653 643.67 186.637 644.972 180.128Z" fill="#C8ECFF"/>
<path d="M603.97 235.449C599.804 232.845 593.123 227.422 590.302 225.035H586.397C585.096 231.11 580.93 242.087 579.889 245.211C578.587 249.116 531.077 270.593 529.124 271.244C527.562 271.765 502.874 283.61 490.725 289.468C486.56 299.881 498.101 323.745 504.393 334.375C505.261 333.29 507.907 329.298 511.552 322.009C515.197 314.72 526.087 305.955 531.077 302.484L515.457 285.563L593.556 245.862C602.885 246.947 622.974 251.459 628.701 260.831C635.86 272.546 624.796 285.563 616.335 294.674C609.567 301.963 590.953 307.691 579.889 308.992L562.967 322.009C578.587 318.321 610.738 310.554 614.383 308.992C618.939 307.04 641.067 288.817 639.114 268.641C637.162 248.465 609.176 238.703 603.97 235.449Z" fill="#353630"/>
<path d="M664.497 201.606C665.018 196.399 671.656 195.965 674.91 196.399L679.466 215.924H665.148C661.894 215.924 663.846 208.114 664.497 201.606Z" fill="#353630"/>
<path d="M670.354 213.32C668.619 216.792 662.024 223.734 649.528 223.734C633.908 223.734 618.288 217.876 615.034 212.019C612.43 207.333 597.895 207.897 590.953 208.765C585.963 199.653 572.6 181.56 559.062 182.081C542.141 182.732 521.314 186.636 507.647 203.558C493.979 220.48 488.773 235.449 491.376 253.672C493.979 271.895 546.697 331.771 561.015 337.629C572.469 342.315 584.445 345.222 589.001 346.09" stroke="#EF476F" stroke-width="5"/>
<circle cx="590.302" cy="211.368" r="7.15913" fill="#F9F3D9"/>
<path d="M593.858 344.137C593.858 347.459 590.893 350.296 587.048 350.296C583.204 350.296 580.238 347.459 580.238 344.137C580.238 340.816 583.204 337.978 587.048 337.978C590.893 337.978 593.858 340.816 593.858 344.137Z" fill="#F9F3D9" stroke="#353630" stroke-width="2"/>
<path d="M65.083 382.536C99.4468 383.057 138.952 344.788 150.342 354.551C154.897 358.455 143.182 367.567 132.769 379.933C128.453 385.058 72.7915 415.901 60.5271 419.633C45.5581 424.189 12.3658 428.745 0 428.094L2.60332 377.33C8.24384 379.716 30.7192 382.016 65.083 382.536Z" fill="#EF476F"/>
<path d="M58.5745 588.198C55.3204 580.389 48.8121 553.921 43.6055 541.989C61.4632 541.777 86.8722 534.196 108.688 519.21C140.303 497.494 159.453 465.192 168.565 469.096C177.676 476.906 159.453 503.59 141.23 532.878C126.651 556.307 80.2689 579.738 58.5745 588.198Z" fill="#EF476F"/>
<ellipse cx="714" cy="155" rx="6" ry="7" fill="#FFFCF9"/>
<ellipse cx="726.5" cy="181" rx="6.5" ry="6" fill="#FFFCF9"/>
<ellipse cx="703.5" cy="129.5" rx="4.5" ry="5.5" fill="#FFFCF9"/>
<ellipse cx="699.5" cy="60.5" rx="4.5" ry="5.5" fill="#FFFCF9"/>
<ellipse cx="739.03" cy="157.055" rx="7.98339" ry="9.01406" transform="rotate(0.293984 739.03 157.055)" fill="#FFFCF9"/>
<ellipse cx="726.5" cy="127.5" rx="10.5" ry="11.5" fill="#FFFCF9"/>
<ellipse cx="722.5" cy="79.5" rx="12.5" ry="13.5" fill="#FFFCF9"/>
<ellipse cx="771" cy="91.5" rx="9" ry="10.5" fill="#FFFCF9"/>
<ellipse cx="755.5" cy="58.5" rx="12.5" ry="13.5" fill="#FFFCF9"/>
<ellipse cx="751.689" cy="130.384" rx="8.42304" ry="8.10737" transform="rotate(1.91547 751.689 130.384)" fill="#FFFCF9"/>
<ellipse cx="744.5" cy="102" rx="9.5" ry="9" fill="#FFFCF9"/>
<ellipse cx="702.5" cy="106" rx="7.5" ry="10" fill="#FFFCF9"/>
</svg>
