<svg width="510" height="871" viewBox="0 0 510 871" fill="none" xmlns="http://www.w3.org/2000/svg">
<g clip-path="url(#clip0_1_158)">
<path d="M94 471.5L96 484.5L73 493.5L75 471C69.6667 470.167 65.5 464.1 63.5 450.5C61 433.5 88 431 97.5 431C107 431 109.5 461 105.5 467.5C102.703 472.045 97.1667 472.667 94 471.5Z" fill="#FFC29A"/>
<path d="M407.5 761.5L402.5 761L412 734L420.5 737L407.5 761.5Z" fill="#FFC29A"/>
<path d="M371 803.5L393.5 767L397 768L380 801L371 803.5Z" fill="#FFC29A"/>
<path d="M98 431C89.6 432.6 76.5 448.5 79.5 469C71.4999 471.8 65 468 61.5001 465L67 487.5C67.6666 502.333 72.5 510.5 65 517.5C62.0758 520.229 45.763 457.729 48.5 444.5C51.5 430 55.5 423 76.5 421C93.3 419.4 98.8333 426.833 98 431Z" fill="#4B2619"/>
<path d="M101.5 659C111.1 670.6 284.5 762.833 370 807.5L395 765.5L355.5 747.5L401.5 764L416 734.5C335.167 694.833 172.2 615.8 167 617C161.8 618.2 156.833 602.167 155 594L93.5 627.5C92.1667 633.167 91.9 647.4 101.5 659Z" fill="#EBEBEB"/>
<path d="M393.5 803C389.5 805.8 381.5 803.334 379.5 801L396.5 768C399.532 765.726 403.599 762.533 406.783 762.688C406.441 762.277 406.174 761.87 406 761.5L417.5 736C422.167 731.667 425.5 723.5 433 728C436.953 730.372 424 754 418.5 762.5C415.971 766.409 412.66 766.43 410.048 765.203C411.587 772.424 398.174 799.728 393.5 803Z" fill="#6B291B"/>
<path d="M152 601L216 0" stroke="#591E16" stroke-width="5"/>
<path d="M162.5 461C169.3 458.2 171.833 435.333 172 424.5L197 431C198 433 197.9 444.2 189.5 473C179 509 144 511.5 134 520C126 526.8 143.667 574.167 153.5 597C136.167 608 99.9 629.6 93.5 628C85.5 626 68 501 70 495C72 489 154 464.5 162.5 461Z" fill="#EA6A67"/>
<path d="M159 602L152 590L88.9999 620C90.1666 624 91.2 632.5 86 634.5C79.5 637 58.5 659.5 70.5 677.5C82.5 695.5 96 675 96.5 654.5C96.9 638.1 94 634.333 92.5 634.5L159 602Z" fill="#591E16"/>
<path d="M126.5 675.5L165 616L180 621.5L143 684.5L126.5 675.5Z" fill="#591E16"/>
<path d="M178.5 401.5C173.3 405.9 172.833 419 175 426L194.5 430.5C198.833 422.333 203.9 408.7 199.5 403.5C194 397 185 396 178.5 401.5Z" fill="#FFC29A"/>
</g>
<defs>
<clipPath id="clip0_1_158">
<rect width="510" height="871" fill="white"/>
</clipPath>
</defs>
</svg>
